<svg width="350" height="58" viewBox="0 0 350 58" fill="none" xmlns="http://www.w3.org/2000/svg">
<path d="M36.9684 1.65817C6.64075 2.71618 -4.16554 37.328 1.40674 37.328H10.5035C29.0968 37.328 68.8858 37.328 73.6334 37.328C79.5693 37.328 67.2961 0.600166 36.9684 1.65817Z" fill="#F24E1E"/>
<path d="M64.1993 39.7075H10.886C8.88984 39.7075 7.27159 41.3055 7.27159 43.2768C7.27159 45.248 8.88984 46.846 10.886 46.846H64.1993C66.1955 46.846 67.8138 45.248 67.8138 43.2768C67.8138 41.3055 66.1955 39.7075 64.1993 39.7075Z" fill="#F24E1E"/>
<path d="M55.4644 49.2256H19.621C17.6248 49.2256 16.0065 50.8236 16.0065 52.7948C16.0065 54.766 17.6248 56.364 19.621 56.364H55.4644C57.4606 56.364 59.0788 54.766 59.0788 52.7948C59.0788 50.8236 57.4606 49.2256 55.4644 49.2256Z" fill="#F24E1E"/>
<path d="M97.4708 48.0063C95.0934 48.0063 92.9488 47.6175 91.0371 46.8403C89.1416 46.0631 87.5672 44.9605 86.3142 43.5328C85.0774 42.1051 84.25 40.4077 83.8322 38.4407L86.6756 37.9648C87.2702 40.2491 88.5392 42.0495 90.4828 43.3663C92.4428 44.683 94.7961 45.3412 97.5431 45.3412C99.4066 45.3412 101.053 45.0477 102.483 44.4608C103.913 43.874 105.029 43.0489 105.832 41.9862C106.636 40.9074 107.037 39.6543 107.037 38.2266C107.037 37.1954 106.844 36.331 106.459 35.6329C106.089 34.9349 105.608 34.3638 105.013 33.9197C104.419 33.4596 103.784 33.0949 103.109 32.8251C102.435 32.5396 101.8 32.3097 101.206 32.1351L92.4828 29.5652C91.3262 29.2321 90.2901 28.8197 89.3744 28.3279C88.475 27.8203 87.7117 27.2413 87.0852 26.5909C86.475 25.9246 86.0009 25.1711 85.6636 24.3304C85.3425 23.4896 85.1816 22.5537 85.1816 21.5226C85.1816 19.6824 85.6798 18.0723 86.6756 16.6922C87.6717 15.3121 89.0371 14.2413 90.772 13.4799C92.5232 12.7026 94.531 12.314 96.7961 12.314C99.0774 12.3298 101.126 12.7502 102.941 13.5751C104.756 14.3841 106.242 15.5342 107.398 17.0253C108.571 18.5165 109.326 20.2852 109.664 22.3316L106.796 22.8313C106.571 21.2608 105.993 19.8887 105.061 18.7148C104.145 17.5409 102.973 16.6288 101.543 15.9784C100.114 15.328 98.5232 15.0028 96.772 15.0028C95.0852 14.9869 93.5913 15.2645 92.2901 15.8356C91.0051 16.4067 89.9931 17.1761 89.2539 18.1437C88.5151 19.1114 88.1455 20.2059 88.1455 21.4274C88.1455 22.6965 88.491 23.7117 89.1816 24.4731C89.8886 25.2187 90.7479 25.8057 91.7599 26.234C92.7883 26.6623 93.7681 27.0113 94.6997 27.2809L101.688 29.3273C102.346 29.5177 103.133 29.7874 104.049 30.1363C104.965 30.4852 105.864 30.9849 106.748 31.6354C107.632 32.2698 108.362 33.1187 108.941 34.1815C109.535 35.2284 109.832 36.5452 109.832 38.1314C109.832 39.67 109.535 41.0501 108.941 42.2717C108.346 43.4933 107.495 44.5322 106.386 45.3888C105.278 46.2297 103.969 46.8722 102.459 47.3162C100.949 47.7764 99.2861 48.0063 97.4708 48.0063ZM125.401 48.0063C122.814 48.0063 120.621 47.4272 118.822 46.2692C117.023 45.1113 115.649 43.509 114.702 41.4627C113.754 39.4163 113.28 37.0606 113.28 34.3956C113.28 31.7148 113.762 29.359 114.726 27.3285C115.69 25.2822 117.071 23.6959 118.87 22.5696C120.686 21.4433 122.862 20.8801 125.401 20.8801C127.987 20.8801 130.18 21.4591 131.979 22.6171C133.794 23.7593 135.167 25.3456 136.099 27.3761C137.047 29.4066 137.521 31.7463 137.521 34.3956C137.521 37.1082 137.047 39.4877 136.099 41.5341C135.152 43.5647 133.77 45.1509 131.955 46.293C130.139 47.4352 127.955 48.0063 125.401 48.0063ZM125.401 45.3412C128.469 45.3412 130.758 44.3261 132.268 42.2955C133.794 40.2649 134.557 37.6317 134.557 34.3956C134.557 31.0961 133.794 28.4627 132.268 26.4957C130.742 24.5287 128.453 23.5451 125.401 23.5451C123.328 23.5451 121.617 24.0131 120.268 24.949C118.919 25.8691 117.907 27.1461 117.232 28.78C116.573 30.3981 116.244 32.2698 116.244 34.3956C116.244 37.6951 117.015 40.3443 118.557 42.3431C120.115 44.3419 122.396 45.3412 125.401 45.3412ZM145.521 47.2924V19.1907C145.521 18.5244 145.554 17.8899 145.618 17.2871C145.698 16.6843 145.851 16.1132 146.076 15.5739C146.317 15.0345 146.654 14.5269 147.088 14.051C147.537 13.5751 148.036 13.2102 148.582 12.9564C149.144 12.7026 149.738 12.5361 150.365 12.4567C150.991 12.3616 151.65 12.314 152.341 12.314H155.69V14.6935H152.582C151.152 14.6935 150.076 15.0345 149.353 15.7166C148.646 16.3987 148.292 17.525 148.292 19.0955V47.2924H145.521ZM140.895 24.0924V21.594H155.69V24.0924H140.895ZM173.337 47.2924C171.956 47.5937 170.59 47.705 169.241 47.6256C167.892 47.5622 166.687 47.2686 165.627 46.7451C164.582 46.2059 163.795 45.3808 163.265 44.2705C162.831 43.3663 162.59 42.454 162.542 41.5341C162.494 40.6141 162.47 39.5591 162.47 38.3694V14.4555H165.265V38.3218C165.265 39.4006 165.273 40.2967 165.289 41.0106C165.321 41.7087 165.49 42.3511 165.795 42.938C166.373 44.0325 167.289 44.6988 168.542 44.9367C169.795 45.1589 171.393 45.1191 173.337 44.8178V47.2924ZM156.639 24.0924V21.594H173.337V24.0924H156.639Z" fill="#F24E1E"/>
<path d="M178.308 47.2923V13.0277H183.344V27.8043H200.694V13.0277H205.754V47.2923H200.694V32.4919H183.344V47.2923H178.308ZM223.824 48.0061C221.222 48.0061 218.965 47.427 217.053 46.2691C215.142 45.1112 213.664 43.5169 212.62 41.4863C211.592 39.44 211.077 37.0843 211.077 34.4192C211.077 31.7385 211.608 29.3827 212.668 27.3522C213.728 25.3058 215.214 23.7195 217.126 22.5932C219.037 21.451 221.27 20.88 223.824 20.88C226.427 20.88 228.684 21.459 230.595 22.617C232.507 23.775 233.985 25.3693 235.029 27.3998C236.073 29.4303 236.595 31.77 236.595 34.4192C236.595 37.1 236.065 39.4638 235.005 41.5101C233.961 43.5407 232.483 45.135 230.571 46.2929C228.66 47.435 226.411 48.0061 223.824 48.0061ZM223.824 43.3185C226.314 43.3185 228.17 42.4937 229.391 40.8439C230.628 39.1782 231.246 37.0367 231.246 34.4192C231.246 31.7385 230.62 29.5968 229.367 27.9946C228.13 26.3766 226.282 25.5676 223.824 25.5676C222.138 25.5676 220.748 25.9483 219.656 26.7097C218.564 27.4553 217.752 28.4943 217.222 29.8268C216.692 31.1436 216.427 32.6742 216.427 34.4192C216.427 37.1161 217.053 39.2734 218.306 40.8914C219.559 42.5095 221.399 43.3185 223.824 43.3185ZM241.891 47.2923V21.5938H246.373V27.8281L245.746 27.019C246.067 26.1942 246.485 25.4406 246.999 24.7585C247.513 24.0605 248.107 23.4895 248.782 23.0453C249.441 22.5694 250.172 22.2045 250.975 21.9507C251.794 21.681 252.63 21.5224 253.481 21.4748C254.333 21.4114 255.152 21.451 255.939 21.5938V26.2576C255.088 26.0355 254.14 25.9721 253.095 26.0672C252.067 26.1624 251.12 26.4876 250.252 27.0428C249.433 27.5663 248.782 28.2008 248.3 28.9464C247.835 29.692 247.497 30.5249 247.288 31.4449C247.079 32.3491 246.975 33.3089 246.975 34.3241V47.2923H241.891ZM261.01 17.3821V12.5518H266.046V17.3821H261.01ZM261.01 47.2923V21.5938H266.046V47.2923H261.01ZM270.872 47.2923V46.507L285.643 26.0434H272.222V21.5938H293.643V22.4028L278.896 42.8426H292.92V47.2923H270.872ZM308.304 48.0061C305.702 48.0061 303.443 47.427 301.533 46.2691C299.62 45.1112 298.142 43.5169 297.098 41.4863C296.07 39.44 295.556 37.0843 295.556 34.4192C295.556 31.7385 296.086 29.3827 297.146 27.3522C298.207 25.3058 299.692 23.7195 301.605 22.5932C303.515 21.451 305.75 20.88 308.304 20.88C310.907 20.88 313.163 21.459 315.075 22.617C316.985 23.775 318.464 25.3693 319.509 27.3998C320.551 29.4303 321.075 31.77 321.075 34.4192C321.075 37.1 320.545 39.4638 319.485 41.5101C318.44 43.5407 316.961 45.135 315.051 46.2929C313.139 47.435 310.889 48.0061 308.304 48.0061ZM308.304 43.3185C310.792 43.3185 312.648 42.4937 313.87 40.8439C315.105 39.1782 315.726 37.0367 315.726 34.4192C315.726 31.7385 315.099 29.5968 313.846 27.9946C312.608 26.3766 310.762 25.5676 308.304 25.5676C306.617 25.5676 305.226 25.9483 304.136 26.7097C303.042 27.4553 302.232 28.4943 301.702 29.8268C301.17 31.1436 300.905 32.6742 300.905 34.4192C300.905 37.1161 301.533 39.2734 302.786 40.8914C304.039 42.5095 305.876 43.3185 308.304 43.3185ZM344.635 47.2923V34.6572C344.635 33.6578 344.545 32.6346 344.37 31.5877C344.208 30.5249 343.889 29.5413 343.407 28.6371C342.94 27.7329 342.274 27.0032 341.407 26.448C340.554 25.8927 339.437 25.6151 338.057 25.6151C337.157 25.6151 336.304 25.7659 335.503 26.0672C334.699 26.3528 333.991 26.8207 333.382 27.4711C332.786 28.1215 332.313 28.9782 331.961 30.041C331.623 31.1037 331.455 32.3967 331.455 33.9195L328.322 32.7536C328.322 30.4217 328.762 28.3674 329.648 26.5907C330.53 24.7982 331.798 23.4022 333.455 22.4028C335.108 21.4034 337.108 20.9038 339.455 20.9038C341.253 20.9038 342.762 21.1893 343.985 21.7604C345.205 22.3315 346.193 23.0849 346.949 24.0209C347.72 24.9409 348.304 25.9483 348.708 27.0428C349.108 28.1374 349.383 29.2082 349.527 30.2551C349.672 31.3021 349.744 32.2221 349.744 33.0153V47.2923H344.635ZM326.346 47.2923V21.5938H330.852V29.0178H331.455V47.2923H326.346Z" fill="white"/>
</svg>
